<svg width="16" height="17" viewBox="0 0 16 17" fill="none" xmlns="http://www.w3.org/2000/svg">
    <path
        d="M8.65473 10.705C8.65473 10.3433 8.36147 10.05 7.99973 10.05C7.63798 10.05 7.34473 10.3433 7.34473 10.705V12.705C7.34473 13.0668 7.63798 13.36 7.99973 13.36C8.36147 13.36 8.65473 13.0668 8.65473 12.705V10.705Z"
        fill="#656565" />
    <path fill-rule="evenodd" clip-rule="evenodd"
        d="M12.6547 5.70505C12.6547 4.05249 12.0999 2.75392 11.2129 1.86689C10.332 0.986028 9.16175 0.550049 7.99973 0.550049C6.8377 0.550049 5.66744 0.986028 4.78657 1.86689C3.89954 2.75392 3.34473 4.05249 3.34473 5.70505V6.55005H2.4283C1.54782 6.55005 0.844727 7.26896 0.844727 8.14255V15.2675C0.844727 16.1411 1.54782 16.8601 2.4283 16.8601H13.5712C14.4517 16.8601 15.1548 16.1411 15.1548 15.2675L15.1547 8.14255C15.1547 7.26896 14.4516 6.55005 13.5712 6.55005H12.6547V5.70505ZM11.3447 6.55005V5.70505C11.3447 4.35761 10.8995 3.40618 10.2866 2.7932C9.66744 2.17407 8.8377 1.86005 7.99973 1.86005C7.16175 1.86005 6.33202 2.17407 5.71288 2.7932C5.09991 3.40618 4.65473 4.35761 4.65473 5.70505V6.55005H11.3447ZM2.15473 8.14255C2.15473 7.9806 2.2831 7.86005 2.4283 7.86005H13.5712C13.7163 7.86005 13.8447 7.9806 13.8447 8.14255L13.8448 15.2676C13.8448 15.4295 13.7164 15.55 13.5712 15.55H2.4283C2.2831 15.55 2.15473 15.4295 2.15473 15.2675V8.14255Z"
        fill="#656565" />
</svg>