<svg width="16" height="16" viewBox="0 0 16 16" fill="none" xmlns="http://www.w3.org/2000/svg">
    <path fill-rule="evenodd" clip-rule="evenodd"
        d="M8 0.34375C5.98071 0.34375 4.34375 1.98071 4.34375 4C4.34375 5.58618 5.35381 6.93645 6.76581 7.44271C3.1242 8.03287 0.34375 11.1917 0.34375 15C0.34375 15.3624 0.637563 15.6562 1 15.6562C1.36244 15.6562 1.65625 15.3624 1.65625 15C1.65625 11.4964 4.49644 8.65625 8 8.65625C11.5036 8.65625 14.3438 11.4964 14.3438 15C14.3438 15.3624 14.6376 15.6562 15 15.6562C15.3624 15.6562 15.6562 15.3624 15.6562 15C15.6562 11.1917 12.8758 8.03287 9.23419 7.44271C10.6462 6.93645 11.6562 5.58618 11.6562 4C11.6562 1.98071 10.0193 0.34375 8 0.34375ZM5.65625 4C5.65625 2.70558 6.70558 1.65625 8 1.65625C9.29442 1.65625 10.3438 2.70558 10.3438 4C10.3438 5.29442 9.29442 6.34375 8 6.34375C6.70558 6.34375 5.65625 5.29442 5.65625 4Z"
        fill="#656565" />
</svg>